<?xml version="1.0" standalone="no"?>
<!DOCTYPE svg PUBLIC "-//W3C//DTD SVG 20010904//EN"
 "http://www.w3.org/TR/2001/REC-SVG-20010904/DTD/svg10.dtd">
<svg version="1.0" xmlns="http://www.w3.org/2000/svg"
 width="1000.000000pt" height="1000.000000pt" viewBox="0 0 1000.000000 1000.000000"
 preserveAspectRatio="xMidYMid meet">
<metadata>
Created by potrace 1.11, written by Peter Selinger 2001-2013
</metadata>
<g transform="translate(0.000000,1000.000000) scale(0.100000,-0.100000)"
fill="#000000" stroke="none">
<path d="M4225 8375 c-23 -22 -97 -92 -165 -155 -67 -63 -146 -137 -175 -165
-30 -27 -84 -79 -122 -114 -85 -80 -321 -303 -378 -356 -42 -40 -262 -247
-338 -319 -23 -21 -76 -71 -117 -110 -42 -39 -147 -138 -235 -221 -88 -82
-198 -186 -245 -231 -47 -44 -121 -114 -165 -154 -44 -41 -82 -77 -85 -80 -3
-3 -79 -75 -170 -160 -91 -85 -179 -168 -196 -185 -17 -16 -78 -74 -135 -127
-57 -53 -134 -125 -170 -160 -36 -35 -122 -115 -189 -178 -68 -63 -173 -163
-234 -222 l-111 -107 50 15 c28 8 93 26 145 40 52 14 129 34 170 46 41 11 107
28 145 38 39 10 196 53 350 95 154 42 287 78 296 80 12 2 452 121 619 166 25
7 50 13 55 14 6 2 53 14 105 29 52 14 194 53 315 85 121 33 247 67 280 76 85
23 167 45 190 50 11 3 70 19 130 35 61 17 117 33 125 34 8 2 35 10 60 17 25 7
50 13 55 15 6 1 37 9 70 18 33 9 68 19 78 21 10 2 136 36 280 76 144 39 271
73 282 75 11 2 43 11 70 19 141 43 152 44 239 18 45 -13 97 -28 116 -33 36
-11 431 -117 463 -125 9 -3 25 -7 35 -9 9 -3 69 -19 132 -36 63 -18 122 -33
130 -35 8 -2 107 -29 220 -60 236 -65 385 -105 520 -141 100 -27 500 -135 730
-198 74 -21 160 -44 190 -52 70 -19 803 -217 1109 -300 129 -35 236 -62 238
-60 4 4 5 3 -99 101 -40 39 -145 138 -233 220 -87 83 -192 182 -233 220 -41
39 -92 86 -112 105 -20 19 -68 64 -106 99 -38 36 -139 131 -224 211 -85 81
-168 159 -185 175 -16 15 -88 82 -159 148 -70 67 -140 133 -155 147 -15 14
-94 89 -177 166 -82 78 -165 156 -184 174 -19 18 -89 83 -155 145 -66 62 -138
130 -160 150 -22 21 -105 99 -184 174 -175 165 -313 295 -521 491 -15 14 -86
81 -159 150 -73 69 -151 141 -173 160 l-40 35 -730 0 -730 0 -43 -40z"/>
<path d="M4941 3515 c-57 -51 -51 -45 -225 -210 -81 -77 -150 -142 -154 -145
-4 -3 -13 -13 -21 -23 -12 -15 -12 -17 0 -13 12 5 414 113 444 120 6 2 30 8
54 15 39 11 54 10 120 -8 283 -79 467 -127 471 -124 3 3 -12 19 -32 37 -20 18
-99 92 -175 163 -76 72 -160 152 -187 177 -27 25 -56 46 -65 47 -9 0 -54 1
-101 2 l-85 2 -44 -40z"/>
<path d="M2280 2966 c-112 -23 -200 -108 -280 -271 -28 -58 -52 -105 -53 -105
-1 0 -1 86 0 191 2 177 1 191 -15 186 -9 -3 -84 -28 -167 -57 -82 -28 -226
-71 -319 -95 -92 -24 -171 -46 -173 -49 -12 -11 10 -24 51 -30 81 -12 139 -67
161 -153 19 -72 20 -737 1 -816 -20 -84 -62 -113 -168 -116 -18 -1 -28 -6 -28
-16 0 -13 56 -15 445 -15 389 0 445 2 445 15 0 9 -10 15 -26 15 -87 0 -154 43
-173 114 -16 59 -14 727 3 797 25 108 76 163 132 144 16 -6 50 -37 76 -69 26
-32 62 -69 80 -82 67 -48 172 -40 236 17 116 105 92 304 -46 373 -60 30 -113
36 -182 22z"/>
<path d="M3745 2969 c-91 -8 -119 -12 -230 -39 -76 -18 -218 -61 -260 -80
-137 -60 -258 -133 -306 -186 -49 -55 -71 -103 -76 -168 -10 -119 61 -197 180
-197 69 0 91 5 142 35 88 52 129 137 149 311 14 118 48 192 102 226 36 22 118
35 157 25 46 -11 84 -62 97 -129 9 -53 15 -203 11 -327 l-1 -35 -123 -38
c-365 -115 -616 -242 -680 -345 -14 -20 -29 -58 -34 -83 -43 -200 115 -351
365 -350 195 0 308 49 427 184 l49 56 19 -59 c39 -118 125 -182 246 -181 84 1
102 4 181 38 100 42 264 160 251 181 -5 9 -18 7 -46 -7 -43 -21 -100 -21 -133
0 -44 28 -46 44 -48 454 -1 215 -4 418 -8 453 -15 143 -115 245 -255 258 -25
3 -57 6 -71 7 -14 2 -61 0 -105 -4z m-33 -839 c-2 -214 -3 -237 -23 -276 -25
-53 -72 -84 -128 -84 -56 0 -92 20 -118 67 -36 63 -44 144 -28 267 12 94 65
163 158 208 97 47 122 58 131 55 5 -2 8 -104 8 -237z"/>
<path d="M6268 2958 c-268 -54 -437 -237 -414 -450 8 -82 43 -153 99 -207 87
-83 171 -127 420 -221 252 -95 311 -142 320 -252 7 -81 -30 -150 -98 -186 -47
-24 -149 -21 -220 8 -166 66 -360 287 -470 532 -20 45 -36 68 -47 68 -14 0
-16 -7 -13 -37 2 -21 6 -118 10 -215 4 -98 8 -186 10 -195 2 -10 4 -32 4 -49
1 -30 4 -31 109 -67 116 -39 287 -83 367 -93 57 -8 190 -7 238 1 221 37 387
169 442 351 22 75 15 198 -17 264 -59 124 -148 181 -445 281 -186 63 -239 88
-287 135 -105 106 -65 267 77 305 147 39 362 -132 497 -395 54 -108 63 -101
55 40 -3 66 -8 135 -10 154 -2 19 -5 65 -6 101 l-2 67 -61 16 c-158 42 -231
52 -408 60 -32 1 -99 -6 -150 -16z"/>
<path d="M8026 2973 c-1 -1 -24 -5 -51 -8 -28 -4 -58 -11 -67 -16 -10 -6 -18
-8 -18 -5 0 5 -111 -39 -143 -57 -51 -29 -135 -94 -176 -136 -170 -175 -235
-445 -166 -684 32 -111 112 -236 195 -307 57 -49 153 -110 173 -110 7 0 17 -4
23 -10 22 -22 180 -52 274 -52 242 1 427 101 564 305 101 151 155 330 65 215
-104 -132 -217 -187 -389 -189 -263 -2 -412 140 -436 416 l-6 70 437 0 437 0
-6 48 c-22 163 -125 322 -269 416 -73 47 -219 97 -297 101 -86 4 -142 5 -144
3z m105 -43 c43 -12 81 -51 102 -107 25 -64 28 -86 34 -240 l6 -143 -203 0
-203 0 6 108 c4 59 12 124 18 146 6 21 12 47 14 57 15 75 82 162 138 178 43
12 47 12 88 1z"/>
<path d="M5240 2945 c-90 -34 -449 -139 -517 -151 -12 -2 -35 -9 -50 -15 -16
-6 -30 -9 -33 -8 -3 1 -6 -4 -8 -13 -2 -11 9 -17 44 -22 55 -7 106 -36 134
-76 41 -58 48 -132 45 -521 -1 -317 -4 -369 -19 -405 -20 -48 -58 -73 -123
-81 -54 -6 -58 -8 -48 -22 4 -8 141 -11 431 -11 352 0 424 2 424 14 0 9 -18
16 -52 20 -86 12 -118 44 -133 134 -4 24 -7 300 -7 613 0 417 -3 569 -12 568
-6 0 -40 -11 -76 -24z"/>
</g>
</svg>
