<svg xmlns="http://www.w3.org/2000/svg" viewBox="0 0 512 512">
  <path d="M259.323 161.064c-96.745 0-175.453 78.714-175.453 175.467 0 96.754 78.708 175.47 175.454 175.47 74.004 0 140.43-46.811 165.29-116.483a7.835 7.835 0 0 0-4.747-10.014c-4.075-1.458-8.56.67-10.014 4.747a158.772 158.772 0 0 1-11.031 24.253 305.075 305.075 0 0 0-21.383-8.802c6.015-19.231 9.486-39.943 10.167-61.332h31.298a160.766 160.766 0 0 1-1.879 17.999 7.833 7.833 0 0 0 6.477 8.991 7.83 7.83 0 0 0 8.991-6.477 177.196 177.196 0 0 0 2.281-28.35c.001-96.755-78.706-175.469-175.451-175.469zm69.097 49.297a75.447 75.447 0 0 0-13.193-1.179 75.52 75.52 0 0 0-9.334.599c-4.032-10.597-8.282-18.998-12.591-25.619 12.849 5.772 24.71 14.722 35.118 26.199zm-61.259-31.267c8.17 4.814 16.387 16.818 23.316 34.281-8.529 2.964-16.395 7.412-23.316 13.052v-47.333zm48.066 45.762c34.168 0 61.967 28.858 61.967 64.329 0 26.51-16.042 50.669-39.914 60.117a14.239 14.239 0 0 0-7.159 6.256l-14.894 26.597-14.894-26.597-.003-.005a14.224 14.224 0 0 0-7.154-6.251c-23.875-9.45-39.915-33.609-39.915-60.118-.001-35.469 27.797-64.328 61.966-64.328zm56.699 119.512c-.682 19.924-3.955 38.898-9.345 56.269a331.735 331.735 0 0 0-34.792-8.836l15.747-28.12c10.695-4.322 20.104-11.004 27.769-19.313h.621zm-71.668 43.136a356.592 356.592 0 0 0-33.097-2.258v-33.313c5.908 4.839 12.539 8.833 19.756 11.749l13.341 23.822zm-48.771-208.41v64.49a80.812 80.812 0 0 0-11.994 28.05 340.312 340.312 0 0 1-25.677-2.435c2.793-17.913 6.72-34.374 11.678-48.626 7.43-21.368 16.743-36.03 25.993-41.479zm-3.653 149.6h-38.921c.245-15.148 1.194-29.91 2.806-43.966a356.347 356.347 0 0 0 25.917 2.5c-.016.653-.048 1.301-.048 1.958-.001 14.101 3.688 27.671 10.246 39.508zm3.653 15.673v40.878a355.5 355.5 0 0 0-39.769 3.087c-1.612-14.056-2.561-28.817-2.806-43.965h42.575zm-26.139-160.21c-5.053 7.76-10.025 17.943-14.659 31.266-5.25 15.091-9.402 32.464-12.343 51.315-1.523-.279-3.048-.554-4.564-.854a7.835 7.835 0 0 0-9.211 6.163 7.837 7.837 0 0 0 6.163 9.211c1.826.363 3.661.699 5.498 1.031-1.729 14.855-2.744 30.439-2.994 46.404h-46.519c.682-19.925 3.956-38.901 9.346-56.271 2.627.823 5.264 1.626 7.921 2.384a7.84 7.84 0 0 0 9.688-5.383 7.835 7.835 0 0 0-5.383-9.687 309.175 309.175 0 0 1-6.982-2.091c13.937-34.655 36.758-61.24 64.039-73.488zm-29.115 206.622c-13.709 2.484-27.138 5.775-40.169 9.857-5.389-17.37-8.662-36.344-9.345-56.269h46.519c.251 15.968 1.266 31.554 2.995 46.412zM181.03 197.281a154.227 154.227 0 0 0-13.329 16.142c-8.488 11.8-15.603 24.979-21.252 39.161a292.079 292.079 0 0 1-18.146-7.399 160.954 160.954 0 0 1 52.727-47.904zm-61.147 61.309a307.532 307.532 0 0 0 21.325 8.765c-6.015 19.233-9.487 39.947-10.169 61.34H99.737a158.687 158.687 0 0 1 20.146-70.105zm-20.146 85.777h31.303c.681 21.39 4.152 42.101 10.167 61.332a305.846 305.846 0 0 0-21.322 8.774 158.66 158.66 0 0 1-20.148-70.106zm28.557 83.5a291.078 291.078 0 0 1 18.151-7.395c5.65 14.182 12.766 27.366 21.255 39.168a154.33 154.33 0 0 0 13.329 16.142 160.983 160.983 0 0 1-52.735-47.915zm33.014-12.449c12.021-3.739 24.399-6.775 37.036-9.093 2.941 18.851 7.093 36.222 12.343 51.313 4.635 13.325 9.607 23.507 14.66 31.268-27.279-12.247-50.1-38.833-64.039-73.488zm105.853 78.55v-23.764a7.836 7.836 0 0 0-7.837-7.837 7.837 7.837 0 0 0-7.837 7.837v23.764c-9.25-5.448-18.562-20.109-25.995-41.478-4.958-14.253-8.885-30.715-11.677-48.626a339.299 339.299 0 0 1 37.672-2.94v36.889a7.837 7.837 0 0 0 7.837 7.837 7.836 7.836 0 0 0 7.837-7.837v-36.89a339.933 339.933 0 0 1 37.666 2.939c-2.792 17.913-6.718 34.375-11.675 48.628-7.433 21.368-16.743 36.029-25.991 41.478zm26.135-5.061c5.054-7.76 10.026-17.943 14.66-31.269 5.249-15.088 9.393-32.465 12.334-51.315 12.641 2.319 25.023 5.354 37.048 9.095-13.94 34.656-36.76 61.242-64.042 73.489zm97.125-61.01c-13.838 19.799-31.945 36.112-52.759 47.838a154.397 154.397 0 0 0 13.284-16.094c8.49-11.802 15.607-24.986 21.255-39.168a290.25 290.25 0 0 1 18.22 7.424zm-34.139-206.569a168.873 168.873 0 0 0-5.337-7.906 154.225 154.225 0 0 0-13.33-16.143 160.983 160.983 0 0 1 52.726 47.9 288.609 288.609 0 0 1-8.192 3.516c-6.364-11.123-15.257-20.526-25.867-27.367zm31.317 107.366a240.148 240.148 0 0 0-.49-9.497 81.386 81.386 0 0 0 5.757-30.012 81.854 81.854 0 0 0-4.294-26.19c3.432-1.413 6.83-2.88 10.188-4.408a158.676 158.676 0 0 1 20.149 70.107h-31.31z"/>
  <path d="M315.227 249.894c-21.225 0-38.492 17.625-38.492 39.29s17.267 39.291 38.492 39.291c4.679 0 9.257-.853 13.607-2.535a7.836 7.836 0 0 0 4.484-10.134 7.834 7.834 0 0 0-10.134-4.484 22.002 22.002 0 0 1-7.956 1.48c-12.582 0-22.818-10.594-22.818-23.617 0-13.023 10.237-23.617 22.818-23.617 12.584 0 22.821 10.594 22.821 23.617 0 2.216-.297 4.407-.882 6.514a7.837 7.837 0 0 0 15.102 4.194 40.033 40.033 0 0 0 1.453-10.708c-.001-21.665-17.269-39.291-38.495-39.291zm-36.66-193.801a7.836 7.836 0 0 0-7.837 7.837c0 9.16-7.173 16.612-15.991 16.612s-15.992-7.452-15.992-16.612c0-9.159 7.174-16.609 15.992-16.609 3.004 0 5.932.875 8.468 2.53a7.838 7.838 0 0 0 8.563-13.129 31.107 31.107 0 0 0-17.032-5.075c-17.46 0-31.666 14.481-31.666 32.282 0 17.802 14.205 32.285 31.666 32.285s31.666-14.482 31.666-32.284a7.837 7.837 0 0 0-7.837-7.837z"/>
  <path d="M254.739 0c-34.239 0-62.094 28.678-62.094 63.93 0 25.907 15.567 49.593 38.866 59.291l16.39 29.271a7.837 7.837 0 0 0 13.676 0l16.392-29.272c23.288-9.688 38.863-33.378 38.863-59.29 0-35.252-27.855-63.93-62.093-63.93zm16.514 109.031a12.775 12.775 0 0 0-6.461 5.638l-10.054 17.953-10.053-17.953-.007-.014a12.782 12.782 0 0 0-6.439-5.618c-17.897-7.083-29.922-25.21-29.922-45.107 0-26.608 20.824-48.257 46.421-48.257 25.596 0 46.42 21.648 46.42 48.257 0 19.897-12.025 38.025-29.905 45.101zM104.447 83.847c-28.252 0-51.237 23.644-51.237 52.705 0 21.169 12.619 40.539 31.551 48.661l12.848 22.945a7.837 7.837 0 0 0 13.676 0l12.849-22.946c18.928-8.12 31.55-27.492 31.55-48.66 0-29.061-22.985-52.705-51.237-52.705zm12.619 87.327a11.827 11.827 0 0 0-5.945 5.198l-6.674 11.917-6.683-11.935a11.826 11.826 0 0 0-5.936-5.18c-13.724-5.431-22.944-19.345-22.944-34.624 0-20.419 15.953-37.031 35.563-37.031s35.563 16.612 35.563 37.031c0 15.281-9.221 29.194-22.944 34.624z"/>
  <path d="M104.447 109.161c-14.83 0-26.896 12.288-26.896 27.392s12.065 27.393 26.896 27.393c14.831 0 26.897-12.289 26.897-27.393 0-15.106-12.066-27.392-26.897-27.392zm0 39.11c-6.188 0-11.222-5.257-11.222-11.72 0-6.462 5.034-11.719 11.222-11.719 6.189 0 11.223 5.257 11.223 11.719 0 6.463-5.034 11.72-11.223 11.72zm303.105-64.423c-28.252 0-51.237 23.644-51.237 52.705 0 21.169 12.62 40.54 31.552 48.662l12.847 22.944a7.837 7.837 0 0 0 13.676.001l12.851-22.947c18.928-8.12 31.549-27.492 31.549-48.66 0-29.062-22.985-52.705-51.238-52.705zm12.62 87.327a11.814 11.814 0 0 0-5.944 5.197l-6.675 11.919-6.684-11.936a11.82 11.82 0 0 0-5.937-5.18c-13.723-5.431-22.943-19.345-22.943-34.624 0-20.419 15.953-37.031 35.563-37.031 19.611 0 35.564 16.612 35.564 37.031 0 15.28-9.221 29.194-22.944 34.624z"/>
  <path d="M407.552 109.161c-14.83 0-26.896 12.288-26.896 27.392s12.065 27.393 26.896 27.393c14.831-.001 26.898-12.289 26.898-27.393s-12.067-27.392-26.898-27.392zm0 39.111c-6.188-.001-11.222-5.258-11.222-11.72s5.034-11.719 11.222-11.719c6.189 0 11.224 5.257 11.224 11.719s-5.035 11.72-11.224 11.72z"/>
</svg>
