<svg xmlns="http://www.w3.org/2000/svg" data-name="Layer 1" viewBox="0 0 1000 1000">
  <path d="M501.23 358.19L100 466.24l401.23-108.05z" class="cls-1"/>
  <path fill="#a4b3f4" d="M900 466.24L722.01 298.73l-220.78 59.46L900 466.24z"/>
  <path d="M501.23 358.19l220.78-59.46-148.74-139.98H426.73L100 466.24l401.23-108.05zM194.74 743q7.9-21.06 17.38-30.68t22.13-9.61a25.24 25.24 0 0 1 9.35 1.71 23.29 23.29 0 0 1 7.64 4.87 22.84 22.84 0 0 1 5.13 7.37 23.55 23.55 0 0 1-4.08 24.76 19 19 0 0 1-14.36 6.33 17.87 17.87 0 0 1-12.38-4.48 9.63 9.63 0 0 1-1.32-1.05c-.35-.35-.75-.8-1.18-1.32s-1.05-1.31-1.85-2.37-1.89-2.55-3.29-4.48q-4.21-5.27-8.17-5.27c-3.34 0-6.06 1.85-8.16 5.53a27.22 27.22 0 0 0-2.5 5.4 37.06 37.06 0 0 0-1.45 6.85 95.2 95.2 0 0 0-.66 10q-.14 5.92-.14 14.62v32.92a153.87 153.87 0 0 0 .66 16.06q.66 6.06 2.89 9.22a11.43 11.43 0 0 0 6.32 4.35 48.19 48.19 0 0 0 11.19 1.44v2.64h-88.73v-2.61a48.24 48.24 0 0 0 11.19-1.44 11.45 11.45 0 0 0 6.32-4.35q2.23-3.16 2.89-9.22a155.67 155.67 0 0 0 .66-16.06v-43.2a108.37 108.37 0 0 0-1.05-17.64 23.52 23.52 0 0 0-4.22-10 17.82 17.82 0 0 0-6.71-5.39 32.17 32.17 0 0 0-10.4-2.24l-.53-2.64q10.53-2.37 18.17-4.35c5.09-1.32 10-2.67 14.75-4.09s9.79-3 15.14-4.87 11.81-4.17 19.36-7zm247.05 77.19q-13.7 11.32-23.7 16.19a45.33 45.33 0 0 1-20 4.87q-21.6 0-26.61-25-9.47 13.43-20.54 19.23t-26.86 5.79q-16.59 0-27-8t-10.4-20.95a27.13 27.13 0 0 1 2-10.53 26.15 26.15 0 0 1 6.46-9 62.64 62.64 0 0 1 11.86-8.41 160.71 160.71 0 0 1 18.17-8.69q9.47-4.22 21.06-8.17t25.28-7.91v-13.7a188 188 0 0 0-.78-20.14q-.79-6.71-2.89-9.88a13.89 13.89 0 0 0-11.86-6.33 21.22 21.22 0 0 0-10.66 2.76 17.29 17.29 0 0 0-7.32 7.78c-.53 1.23-1 2.34-1.44 3.29a15 15 0 0 0-1.05 3.69c-.27 1.49-.58 3.47-.93 5.93s-.78 5.8-1.31 10q-1.58 12.65-9.09 19.88t-18.83 7.25q-8.17 0-13.3-5.14t-5.14-13.3q0-16.32 24-29.5a119.31 119.31 0 0 1 16.72-7.77q9.36-3.55 19-6.19a170.17 170.17 0 0 1 19.23-4.09 123.24 123.24 0 0 1 18-1.44 48.58 48.58 0 0 1 13.7 1.71 27 27 0 0 1 10.28 5.66 23.3 23.3 0 0 1 8 11.06q2.24 6.6 2.24 17.91v60.57q0 7.66.27 10.93a13.57 13.57 0 0 0 1.58 5.67 7.92 7.92 0 0 0 3.68 4.08 12.41 12.41 0 0 0 6.06 1.45 16.35 16.35 0 0 0 4.62-.66 29.79 29.79 0 0 0 5.93-2.78zm-70.32-57.42a99.08 99.08 0 0 0-15 6.06 31.4 31.4 0 0 0-9.62 7.38 24.56 24.56 0 0 0-5 9.73 51.42 51.42 0 0 0-1.44 12.91q0 11.84 3.82 18.17a12.49 12.49 0 0 0 11.45 6.33 14.05 14.05 0 0 0 11.6-5.27q4.21-5.27 4.21-14.48zM463 723q8.7-1.85 18.57-4.48t19.35-5.4q9.49-2.78 17.79-5.53t13.82-4.87v101.4a152.18 152.18 0 0 0 .66 15.93 23 23 0 0 0 2.64 9.21 9.93 9.93 0 0 0 5.8 4.49 40.78 40.78 0 0 0 10.13 1.44v2.64h-85.07v-2.63a40.88 40.88 0 0 0 10.13-1.44 10.17 10.17 0 0 0 5.8-4.35c1.31-2.11 2.2-5.18 2.64-9.22a156 156 0 0 0 .66-16.06v-43.2a108.37 108.37 0 0 0-1.05-17.64 23.52 23.52 0 0 0-4.22-10 17.77 17.77 0 0 0-6.71-5.39 32.17 32.17 0 0 0-10.4-2.24zm45.34-50.26l-55.9 15.05L498 645h20.42l45.48 42.8zM691 753.55h-2.62a108.62 108.62 0 0 0-10-19 89.51 89.51 0 0 0-12.37-15 60.64 60.64 0 0 0-13.3-9.88 27.91 27.91 0 0 0-13-3.55 18.25 18.25 0 0 0-13 5.13 16.64 16.64 0 0 0-5.4 12.51q0 15.8 24.76 24l17.91 5.79q21.06 6.87 30.56 16.33t9.48 23.7a42.65 42.65 0 0 1-4.35 19.1 45 45 0 0 1-12.11 15.15 58 58 0 0 1-18.57 9.88 74.65 74.65 0 0 1-23.44 3.55q-9.74 0-25.41-3.68a267.92 267.92 0 0 1-33-10.28l-2.64-52.42h2.5A180.72 180.72 0 0 0 600.84 801a119.48 119.48 0 0 0 15.68 19.75 69.26 69.26 0 0 0 16.72 12.64 36.43 36.43 0 0 0 17 4.48q9 0 14.22-5.27c3.51-3.51 5.26-8.06 5.26-13.7a18.77 18.77 0 0 0-5.4-13.9q-5.4-5.38-19.37-10.4l-12.9-4.73q-25-9-36-19.23t-10.93-24.77a35 35 0 0 1 4.35-17.12 44.32 44.32 0 0 1 11.86-13.7 57.39 57.39 0 0 1 17.96-9.05 74.05 74.05 0 0 1 22.52-3.29 137.49 137.49 0 0 1 21.06 1.71 205.47 205.47 0 0 1 25.55 5.93zm95.91 5.8q.27 49 44 49 14.24 0 24-5.4t17.91-17.52l2.37 1.05c-1.41 3.87-2.76 7.29-4.09 10.28s-2.62 5.71-3.95 8.17a52.08 52.08 0 0 1-4.35 6.84c-1.58 2.11-3.24 4.31-5 6.58a62.24 62.24 0 0 1-22.12 17 66.58 66.58 0 0 1-28.18 5.93 73.17 73.17 0 0 1-27.53-5.13 67.48 67.48 0 0 1-22.12-14.22 65 65 0 0 1-14.62-21.46 67.24 67.24 0 0 1-5.26-26.61 70 70 0 0 1 20.81-50.44 72.33 72.33 0 0 1 22.77-15.14 71 71 0 0 1 28-5.53 68.72 68.72 0 0 1 30.45 6.69 61.31 61.31 0 0 1 23 19.35 53.36 53.36 0 0 1 7.37 13.57 84.58 84.58 0 0 1 3.69 17zm40.3-3.16q0-13.16-.4-20.41a89.93 89.93 0 0 0-1.45-12.51q-3.68-17.11-16.33-17.12-10.8 0-16.59 12.91t-5.79 37.13z" class="cls-1"/>
</svg>
