<svg xmlns="http://www.w3.org/2000/svg" width="44.678" height="44.678">
  <path d="M13.16 18.613l-.094-1.042c.164-.094.321-.196.468-.31l.781.451.887-.233 1.006-1.739-.233-.887s-.67-.389-1.005-.581a3.554 3.554 0 0 0-.069-.569l.796-.682v-.917l-1.309-1.526h-.917l-.652.559a4.342 4.342 0 0 0-.745-.279l-.063-.775-.648-.648-2.003.162-.648.648.082 1.021a3.98 3.98 0 0 0-.554.378c-.281-.13-.846-.387-.846-.387l-.887.232-.839 1.828-.029.125.263.762.982.449c.014.216.047.425.101.63-.25.21-.749.635-.749.635v.916l1.299 1.534s.755.09.796.067l.122-.067.712-.604c.2.09.409.165.626.224l.074.809.648.648 2-.183.647-.649zm-2.345-2.152a2.021 2.021 0 1 1 0-4.042 2.021 2.021 0 0 1 0 4.042zm7.903 8.727l-.071-.789c.124-.07.243-.147.354-.233.197.112.59.341.59.341l.671-.176.761-1.315-.176-.67s-.506-.294-.76-.439a2.54 2.54 0 0 0-.052-.43l.602-.516v-.693l-.99-1.154h-.694l-.493.422a3.328 3.328 0 0 0-.563-.211l-.047-.586-.49-.49-1.514.123-.49.49.062.771c-.148.084-.289.18-.419.286-.212-.098-.639-.292-.639-.292l-.671.176-.634 1.382-.022.094.199.576.742.339c.011.164.036.32.077.477l-.566.479v.693l.982 1.16s.571.068.602.051l.092-.051.538-.456c.151.067.309.125.474.169l.056.611.49.49 1.512-.139.487-.49zm-1.773-1.627a1.53 1.53 0 1 1 .003-3.059 1.53 1.53 0 0 1-.003 3.059zM32.653 6.125H13.4c-1.612 0-1.612 2.5 0 2.5h19.253c1.612 0 1.612-2.5 0-2.5zm0 5.917h-9.254c-1.611 0-1.611 2.5 0 2.5h9.254c1.612 0 1.612-2.5 0-2.5z"/>
  <path d="M7.198 3h29.055v15.867h3V0H4.198v9.784h3zM33.97 35.793a5.76 5.76 0 0 0-.084-.943l1.35-1.082.049-1.511-2.076-2.586-1.514-.049-1.104.887a7.24 7.24 0 0 0-1.213-.5l-.064-1.282-1.035-1.102-3.309.161-1.104 1.034s.055 1.125.08 1.687a6.821 6.821 0 0 0-.933.593l-1.374-.683-1.475.337-1.479 2.97-.055.203.392 1.271s1.063.526 1.595.791c.012.357.056.705.133 1.043-.423.334-1.269 1.009-1.269 1.009l-.049 1.509 2.06 2.598s1.24.188 1.308.153l.204-.104 1.207-.957c.324.16.664.295 1.02.402l.078 1.338 1.035 1.102 3.305-.194 1.104-1.032-.1-1.724c.273-.146.539-.308.789-.487l1.264.786 1.475-.338 1.752-2.813-.338-1.476c.002-.001-1.082-.675-1.625-1.011zm-6.965 3.386a3.335 3.335 0 1 1 .217-6.665 3.335 3.335 0 0 1-.217 6.665z"/>
  <path d="M40.116 28.74s-1.166-.725-1.75-1.086a5.944 5.944 0 0 0-.09-1.013l1.453-1.165.053-1.625-2.234-2.782-1.627-.053s-.793.635-1.188.955a7.494 7.494 0 0 0-1.307-.539c-.021-.46-.066-1.379-.066-1.379l-1.111-1.187-3.562.174-1.186 1.112s.059 1.209.086 1.813a6.985 6.985 0 0 0-1.002.64c-.492-.246-1.48-.734-1.48-.734l-1.584.363-1.593 3.192-.06.22.423 1.366 1.335.662.66-.619.27-.251.367-.018 2.656-.129a3.574 3.574 0 0 1 3.527-2.53 3.585 3.585 0 0 1 3.471 3.7 3.547 3.547 0 0 1-.379 1.479l1.865 2.324.232.289-.012.37-.031.958.758.471 1.586-.363 1.883-3.025-.363-1.59zM5.927 25.189c.294 0 .537-.08.73-.238.193-.157.339-.381.436-.67.097-.291.146-.672.146-1.145 0-.398-.031-.716-.09-.949a2.075 2.075 0 0 0-.25-.601 1.104 1.104 0 0 0-.404-.375 1.2 1.2 0 0 0-.568-.13c-.293 0-.536.078-.729.236-.193.157-.339.38-.438.67-.096.292-.146.673-.146 1.149 0 .756.132 1.301.396 1.637.223.277.528.416.917.416zm-.549-3.411a.634.634 0 0 1 .544-.289c.23 0 .422.109.578.326.154.218.232.658.232 1.32 0 .659-.078 1.098-.232 1.316-.155.221-.346.33-.572.33-.227 0-.418-.109-.572-.328-.155-.219-.232-.658-.232-1.318-.002-.658.083-1.112.254-1.357zm3.465-.159a3.026 3.026 0 0 1-.725.473v.477c.154-.056.328-.141.521-.254.193-.113.348-.228.467-.34v3.147H9.6v-4.04h-.319a1.829 1.829 0 0 1-.438.537zm-1.85 5.968a1.081 1.081 0 0 0-.404-.375 1.2 1.2 0 0 0-.568-.13c-.292 0-.536.078-.729.236-.193.156-.337.379-.436.67-.097.289-.147.673-.147 1.147 0 .756.133 1.302.398 1.636.221.278.525.418.914.418.294 0 .538-.08.732-.238.191-.158.337-.383.435-.672.097-.289.146-.67.146-1.144 0-.397-.03-.716-.09-.95a2.082 2.082 0 0 0-.251-.598zm-.4 2.866c-.155.22-.345.33-.572.33s-.417-.11-.572-.329c-.155-.218-.23-.658-.23-1.318 0-.659.083-1.112.253-1.358a.637.637 0 0 1 .544-.289c.231 0 .423.109.578.326.155.219.232.658.232 1.32-.001.661-.078 1.099-.233 1.318zm3.102.668v-4.04h-.319a1.847 1.847 0 0 1-.438.538 3 3 0 0 1-.724.473v.477c.153-.056.327-.141.52-.254s.349-.228.467-.34v3.147l.494-.001zm2.708 0v-4.04h-.318a1.847 1.847 0 0 1-.438.538 3 3 0 0 1-.724.473v.477c.152-.056.327-.141.52-.254s.35-.228.467-.34v3.147l.493-.001zm3.549-3.534a1.081 1.081 0 0 0-.404-.375 1.198 1.198 0 0 0-.567-.13c-.293 0-.537.078-.73.236-.193.156-.337.379-.436.67-.097.291-.146.673-.146 1.148 0 .756.132 1.301.397 1.637.221.277.526.416.915.416.293 0 .537-.08.73-.238.193-.157.337-.381.435-.67.097-.291.147-.672.147-1.145 0-.398-.031-.716-.092-.949a1.942 1.942 0 0 0-.249-.6zm-.4 2.866c-.155.22-.345.33-.571.33-.228 0-.418-.11-.574-.329-.155-.218-.23-.658-.23-1.318 0-.659.085-1.112.253-1.358a.64.64 0 0 1 .544-.289c.231 0 .423.109.578.326.155.219.232.658.232 1.32.001.661-.076 1.099-.232 1.318zm-8.559 3.879a1.084 1.084 0 0 0-.404-.376 1.2 1.2 0 0 0-.568-.13c-.292 0-.536.078-.729.236-.193.156-.337.381-.436.67-.097.291-.147.672-.147 1.148 0 .757.133 1.302.398 1.636.221.278.525.419.914.419.294 0 .538-.08.732-.238.191-.158.337-.383.435-.672.097-.289.146-.672.146-1.145 0-.396-.03-.716-.09-.95a2.095 2.095 0 0 0-.251-.598zm-.4 2.867c-.155.219-.345.328-.572.328s-.417-.108-.572-.328c-.155-.219-.23-.657-.23-1.318 0-.659.083-1.111.253-1.357a.637.637 0 0 1 .544-.289c.231 0 .423.109.578.326.155.219.232.658.232 1.32-.001.659-.078 1.098-.233 1.318zm3.526-2.867a1.107 1.107 0 0 0-.404-.376 1.2 1.2 0 0 0-.568-.13c-.292 0-.536.078-.729.236-.193.156-.339.381-.438.67-.097.291-.146.672-.146 1.147 0 .757.132 1.302.396 1.636.222.278.526.418.915.418.294 0 .538-.078.73-.238.193-.157.339-.381.436-.672.097-.289.146-.67.146-1.144 0-.397-.031-.716-.09-.95a2.016 2.016 0 0 0-.248-.597zm-.4 2.867c-.155.219-.345.328-.572.328s-.418-.108-.572-.328c-.155-.219-.232-.657-.232-1.318 0-.659.085-1.111.255-1.357a.637.637 0 0 1 .544-.289c.231 0 .423.109.578.326.154.219.232.658.232 1.32-.001.659-.079 1.098-.233 1.318zm3.524-2.867a1.086 1.086 0 0 0-.402-.376 1.21 1.21 0 0 0-.568-.13c-.292 0-.536.078-.729.236-.194.156-.339.381-.438.67-.097.291-.146.672-.146 1.147 0 .757.132 1.302.396 1.636.222.278.526.418.915.418.293 0 .538-.078.73-.238.193-.157.337-.381.435-.672.097-.289.147-.67.147-1.144 0-.397-.031-.716-.092-.95a1.916 1.916 0 0 0-.248-.597zm-.399 2.867c-.154.219-.346.328-.571.328-.228 0-.418-.108-.573-.328-.155-.219-.231-.657-.231-1.318 0-.659.085-1.111.254-1.357a.64.64 0 0 1 .544-.289c.23 0 .423.109.578.326.155.219.233.658.233 1.32-.001.659-.079 1.098-.234 1.318zm3.104.666v-4.039h-.318a1.843 1.843 0 0 1-.44.537 2.992 2.992 0 0 1-.724.474v.478c.154-.058.327-.143.52-.256s.35-.228.467-.34v3.148h.495v-.002zm2.667 3.047a3.026 3.026 0 0 1-.725.473v.477c.154-.057.328-.141.521-.254a2.5 2.5 0 0 0 .467-.34v3.147h.494v-4.041h-.319a1.864 1.864 0 0 1-.438.538zm-11.622.164a1.09 1.09 0 0 0-.404-.375 1.176 1.176 0 0 0-.568-.131c-.292 0-.536.078-.729.235-.193.157-.337.382-.436.671-.097.291-.147.674-.147 1.149 0 .756.133 1.3.398 1.636.221.276.525.416.914.416.294 0 .538-.078.732-.236.191-.158.337-.384.435-.674.097-.289.146-.671.146-1.142 0-.399-.03-.718-.09-.951a2.095 2.095 0 0 0-.251-.598zm-.4 2.867c-.155.22-.345.33-.572.33s-.417-.11-.572-.33c-.155-.219-.23-.656-.23-1.316 0-.661.083-1.113.253-1.359a.635.635 0 0 1 .544-.287c.231 0 .423.107.578.326.155.217.232.657.232 1.32-.001.658-.078 1.097-.233 1.316zm2.345-2.836a3.022 3.022 0 0 1-.724.474v.477c.153-.057.327-.141.52-.254.193-.112.349-.228.467-.34v3.147h.494V40.57h-.319c-.085.175-.232.353-.438.537zm2.709 0a3.022 3.022 0 0 1-.724.474v.477c.152-.057.327-.141.52-.254a2.48 2.48 0 0 0 .467-.34v3.147h.494V40.57h-.318a1.84 1.84 0 0 1-.439.537zm4.305-.031a1.09 1.09 0 0 0-.404-.375 1.175 1.175 0 0 0-.567-.131c-.293 0-.537.078-.73.235s-.337.382-.436.671c-.097.291-.146.674-.146 1.149 0 .756.132 1.3.397 1.636.221.276.526.416.915.416.293 0 .537-.078.73-.236s.337-.384.435-.674c.097-.289.147-.671.147-1.142 0-.399-.031-.718-.092-.951a1.961 1.961 0 0 0-.249-.598zm-.4 2.867c-.155.22-.345.33-.571.33-.228 0-.418-.11-.574-.33-.155-.219-.23-.656-.23-1.316 0-.661.085-1.113.253-1.359a.637.637 0 0 1 .544-.287c.231 0 .423.107.578.326.155.217.232.657.232 1.32.001.658-.076 1.097-.232 1.316z"/>
</svg>
