<svg xmlns="http://www.w3.org/2000/svg" viewBox="0 0 491.064 491.064">
  <path d="M61.408 133.532c-13.232 0-24 10.768-24 24s10.768 24 24 24 24-10.768 24-24-10.768-24-24-24zm0 32c-4.408 0-8-3.592-8-8s3.592-8 8-8 8 3.592 8 8-3.592 8-8 8z"/>
  <path d="M491.064 203.188l-11.312-11.312-114.48 114.48c-.432-.488-.776-1.04-1.24-1.512l-67.312-67.312 10.344-10.344-11.312-11.312L272 239.628c-12.728 12.72-32.432 14.48-47.096 5.272l58.136-57.68c.008-.008.008-.016.016-.024l152-152-11.312-11.312L277.408 170.22l-10.344-10.344a7.979 7.979 0 0 0-5.656-2.344H232.72l-13.656-13.656-112-112-11.312 11.312 74.344 74.344-102.32 102.32-56.96-52.216L0 179.436l93.408 85.616v20.48c0 2.12.84 4.16 2.344 5.656l34.6 34.6c-3.16 4.264-4.944 9.368-4.944 14.776 0 13.472 10.736 24.408 24.088 24.88.464 13.056 10.944 23.536 24 24 .464 13.056 10.944 23.536 24 24 .472 13.352 11.416 24.088 24.88 24.088 3.4 0 6.696-.696 9.736-1.984l.608.608c6.04 6.048 14.08 9.376 22.632 9.376 8.552 0 16.584-3.328 22.624-9.376l86.056-86.056c6.048-6.048 9.376-14.08 9.376-22.624 0-2.048-.216-4.064-.592-6.04l118.248-118.248zm-411.48 27.488l101.824-101.832 20.688 20.688L101.168 250.46l-21.584-19.784zm77.136 116.232a8.933 8.933 0 0 1-6.344 2.624c-4.944 0-8.968-4.024-8.968-8.968 0-2.4.936-4.648 2.624-6.344l38.064-38.064a8.933 8.933 0 0 1 6.344-2.624c4.944 0 8.968 4.024 8.968 8.968 0 2.4-.936 4.648-2.624 6.344l-38.064 38.064zm24 24a8.933 8.933 0 0 1-6.344 2.624c-4.944 0-8.968-4.024-8.968-8.968 0-2.4.936-4.648 2.624-6.344l38.064-38.064a8.933 8.933 0 0 1 6.344-2.624c4.944 0 8.968 4.024 8.968 8.968 0 2.4-.936 4.648-2.624 6.344l-38.064 38.064zm24 24a8.933 8.933 0 0 1-6.344 2.624c-4.944 0-8.968-4.024-8.968-8.968 0-2.4.936-4.648 2.624-6.344l38.064-38.064a8.933 8.933 0 0 1 6.344-2.624c4.944 0 8.968 4.024 8.968 8.968 0 2.4-.936 4.648-2.624 6.344l-38.064 38.064zm24 24a8.933 8.933 0 0 1-6.344 2.624c-4.944 0-8.968-4.024-8.968-8.968 0-2.4.936-4.648 2.624-6.344l38.064-38.064a8.933 8.933 0 0 1 6.344-2.624c4.944 0 8.968 4.024 8.968 8.968 0 2.4-.936 4.648-2.624 6.344l-38.064 38.064zm124-80.12l-86.056 86.056c-5.816 5.816-15.736 5.976-21.864.616l33.304-33.304a24.836 24.836 0 0 0 7.304-17.656c0-13.472-10.736-24.408-24.088-24.88-.464-13.056-10.944-23.536-24-24-.464-13.056-10.944-23.536-24-24-.472-13.352-11.416-24.088-24.88-24.088-6.672 0-12.944 2.6-17.656 7.312l-29.376 29.376-32-32v-17.376l104-104 10.344 10.344a7.979 7.979 0 0 0 5.656 2.344h28.688l7.976 7.976-58.8 58.344a8.006 8.006 0 0 0 .024 11.376c21.032 20.72 55.144 20.592 76.016-.296l2.096-2.088 67.312 67.312a15.896 15.896 0 0 1 4.688 11.32c0 4.28-1.664 8.288-4.688 11.312zM55.784 349.044l-14.04 7.68c2.632 4.808 5.48 9.6 8.464 14.232l13.456-8.656a213.982 213.982 0 0 1-7.88-13.256zm114.152 98.936l-5.608 14.984a224.943 224.943 0 0 0 15.728 5.232l4.496-15.352a212.772 212.772 0 0 1-14.616-4.864zm-53.984-29.528l-9.608 12.8c4.4 3.304 8.984 6.488 13.608 9.464l8.656-13.456a216.403 216.403 0 0 1-12.656-8.808zm25.928 16.704l-7.68 14.032c4.816 2.632 9.8 5.136 14.816 7.432l6.664-14.544a224.336 224.336 0 0 1-13.8-6.92zm-49.232-36.912l-11.32 11.304a230.82 230.82 0 0 0 12.12 11.296l10.488-12.088a219.02 219.02 0 0 1-11.288-10.512zm-20.2-23.296l-12.8 9.6a235.854 235.854 0 0 0 10.392 12.888l12.088-10.488a228.848 228.848 0 0 1-9.68-12zM29.952 260.98l-15.96 1.136c.384 5.48.976 11.016 1.752 16.464l15.84-2.256c-.72-5.08-1.272-10.24-1.632-15.344zm-15.96-31.976c-.392 5.44-.584 11-.584 16.528v.024l16-.024c0-5.152.184-10.336.544-15.392l-15.96-1.136zm20.312 62.48l-15.632 3.4a232.104 232.104 0 0 0 4.088 16.048l15.352-4.496a224.708 224.708 0 0 1-3.808-14.952zm8.672 29.568l-14.992 5.6a232.73 232.73 0 0 0 6.336 15.28l14.552-6.648a217.545 217.545 0 0 1-5.896-14.232zm398.968 14.224a219.994 219.994 0 0 1-6.928 13.8l14.04 7.68c2.632-4.816 5.136-9.8 7.432-14.816l-14.544-6.664zm-14.808 27.064a219.1 219.1 0 0 1-8.816 12.664l12.8 9.608a231.61 231.61 0 0 0 9.472-13.608l-13.456-8.664zm-18.512 24.664a212.394 212.394 0 0 1-10.512 11.288l11.304 11.32a230.82 230.82 0 0 0 11.296-12.12l-12.088-10.488zm44.096-80.608a218.93 218.93 0 0 1-4.864 14.624l14.984 5.6a227.759 227.759 0 0 0 5.232-15.728l-15.352-4.496zm6.52-30.112a217.285 217.285 0 0 1-2.728 15.176l15.64 3.384a229.188 229.188 0 0 0 2.92-16.304l-15.832-2.256zm-72.424 132.528a220.491 220.491 0 0 1-12.008 9.688l9.6 12.8c4.408-3.304 8.744-6.8 12.888-10.392l-10.48-12.096zm-187.32 47.84l-3.384 15.632a229.188 229.188 0 0 0 16.304 2.92l2.256-15.832a222.047 222.047 0 0 1-15.176-2.72zm261.912-211.12c0 5.144-.176 10.336-.536 15.416l15.96 1.128c.384-5.464.576-11.032.576-16.544h-16zM276.184 459.356a219.187 219.187 0 0 1-15.344 1.632l1.136 15.96c5.48-.384 11.016-.976 16.464-1.752l-2.256-15.84zm-30.776 2.176c-5.144 0-10.32-.176-15.4-.536l-1.128 15.96c5.456.384 11.024.576 16.536.576l-.008-16zm116.752-34.24a217.059 217.059 0 0 1-13.248 7.872l7.68 14.04a234.394 234.394 0 0 0 14.224-8.456l-8.656-13.456zm-27.016 14.776a214.785 214.785 0 0 1-14.224 5.896l5.592 14.992a232.73 232.73 0 0 0 15.28-6.336l-6.648-14.552zm-28.848 10.768a223.46 223.46 0 0 1-14.952 3.808l3.4 15.632a232.104 232.104 0 0 0 16.048-4.088l-4.496-15.352z"/>
  <path d="M338.728 33.82l-7.048 14.368a214.436 214.436 0 0 1 13.576 7.296l8.064-13.824a234.27 234.27 0 0 0-14.592-7.84zm-93.32-20.288l-3.344.024.232 16 3.112-.024c4.224 0 8.352.096 12.384.288l.752-15.984c-4.28-.2-8.648-.304-13.136-.304zm62.272 8.184l-4.488 15.36a174.864 174.864 0 0 1 14.456 4.928l5.832-14.896a190.521 190.521 0 0 0-15.8-5.392zm-32.648-6.544l-1.856 15.888a193.722 193.722 0 0 1 15.168 2.384l3.12-15.696a209.158 209.158 0 0 0-16.432-2.576zm-113.856 14.12c-5.128 2-10.24 4.208-15.2 6.568l6.856 14.456A219.766 219.766 0 0 1 167 44.196l-5.824-14.904zm31.64-9.768a230.84 230.84 0 0 0-15.992 4.32l4.728 15.288a212.29 212.29 0 0 1 14.88-4.024l-3.616-15.584zm32.712-5.152a234.192 234.192 0 0 0-16.448 1.992l2.496 15.808c5.032-.8 10.184-1.424 15.304-1.856l-1.352-15.944z"/>
</svg>
