<svg xmlns="http://www.w3.org/2000/svg" viewBox="0 0 444.982 444.982">
  <path d="M386.83 265.712c4.699-17.269 2.392-35.333-6.496-50.866-18.347-32.066-59.361-43.226-91.427-24.879-32.065 18.347-43.226 59.361-24.879 91.427 8.888 15.533 23.292 26.676 40.561 31.375a67.37 67.37 0 0 0 17.699 2.38c11.521 0 22.897-3 33.167-8.876 15.533-8.888 26.676-23.293 31.375-40.561zm-19.515-43.417c6.898 12.056 8.688 26.076 5.042 39.478a52.695 52.695 0 0 1-2.085 6.107c-11.089-6.27-23.415-11.711-36.795-16.188a253.998 253.998 0 0 0-13.528-4.102c3.372-16.47 5.382-33.767 5.938-51.31 16.689 1.219 32.51 10.431 41.428 26.015zm-70.958-19.309a51.817 51.817 0 0 1 14.482-5.616c-.588 15.969-2.434 31.688-5.469 46.668-11.091-2.379-22.553-4.121-34.317-5.213 2.661-14.571 11.471-27.924 25.304-35.839zm-19.309 70.959a51.693 51.693 0 0 1-6.539-20.108c10.79 1.033 21.298 2.643 31.467 4.814a235.76 235.76 0 0 1-4.332 14.535 215.064 215.064 0 0 1-6.382 16.759 51.87 51.87 0 0 1-14.214-16zm70.958 19.308c-12.055 6.898-26.076 8.689-39.479 5.042a52.644 52.644 0 0 1-3.985-1.27 229.085 229.085 0 0 0 7.327-19.083 250.644 250.644 0 0 0 4.68-15.734 237.779 237.779 0 0 1 12.167 3.709c12.375 4.141 23.74 9.142 33.93 14.882a51.95 51.95 0 0 1-14.64 12.454z"/>
  <path d="M441.26 412.368l-56.789-99.25c11.703-11.175 20.19-25.353 24.548-41.368 6.312-23.196 3.213-47.46-8.726-68.325-7.002-12.237-16.464-22.205-27.408-29.644C366.493 76.751 286.245.75 188.505.015c-.952-.02-1.926-.02-2.878 0-49.435.372-95.849 19.899-130.7 54.989C20.046 90.124.836 136.73.836 186.234c0 49.509 19.21 96.117 54.091 131.239 34.848 35.089 81.264 54.616 130.696 54.99.477.01.955.011 1.443.011s.966-.001 1.443-.011c40.358-.307 78.499-13.229 110.557-37.413a90.545 90.545 0 0 0 23.267 3.049 89.434 89.434 0 0 0 24.304-3.371l56.805 99.278a21.641 21.641 0 0 0 13.188 10.202 21.654 21.654 0 0 0 16.539-2.112 21.641 21.641 0 0 0 10.202-13.188 21.639 21.639 0 0 0-2.111-16.54zM179.57 254.323c-26.887.636-53.23 4.685-77.039 11.834-6.677-22.339-10.473-47.095-11.1-72.423h88.139v60.589zm-88.139-75.589c.627-25.323 4.423-50.075 11.101-72.415 23.808 7.147 50.151 11.196 77.038 11.832v60.583H91.431zM194.57 15.547c28.998 4.208 55.915 32.667 72.275 76.542-22.31 6.65-47.01 10.431-72.275 11.057V15.547zm-15-.001v87.599c-25.265-.626-49.965-4.408-72.273-11.058 16.352-43.874 43.267-72.334 72.273-76.541zM76.426 178.734h-60.42c1.499-34.978 13.47-68.094 34.402-95.699 11.2 7.161 23.892 13.374 37.887 18.542-7.171 23.831-11.232 50.22-11.869 77.157zm-.001 15c.637 26.943 4.698 53.334 11.868 77.166-14.001 5.172-26.694 11.385-37.887 18.54-20.931-27.607-32.902-60.725-34.401-95.707h60.42zM179.57 269.33v87.604c-28.995-4.205-55.912-32.666-72.273-76.545 22.306-6.651 47.003-10.433 72.273-11.059zm15 87.592v-87.599c14.008.343 27.809 1.656 41.184 3.901a89.906 89.906 0 0 0 8.315 19.591 90.012 90.012 0 0 0 10.363 14.547c-16.174 28.666-37.542 46.313-59.862 49.56zm38.12-99.362a309.55 309.55 0 0 0-38.121-3.244v-60.581h55.912c-13.774 18.212-20.151 41.135-17.791 63.825zm32.172-78.825H194.57v-60.583c26.89-.636 53.237-4.685 77.049-11.834 5.733 19.118 9.301 39.633 10.619 61.162a91.18 91.18 0 0 0-4.751 2.528 90.157 90.157 0 0 0-12.625 8.727zm32.016-16.985c-1.615-21.094-5.316-41.262-11.024-60.174 14.008-5.173 26.709-11.393 37.91-18.561 17.685 23.385 29.511 51.484 33.258 82.172-18.763-7.857-40.02-9.333-60.144-3.437zm17.244-90.389c-9.799 6.106-20.86 11.461-33.04 15.987-8.993-24.28-21.253-44.867-35.722-59.84a115.427 115.427 0 0 0-3.648-3.602c28.081 9.434 52.94 25.943 72.41 47.455zM132.455 23.864a115.793 115.793 0 0 0-3.683 3.644c-14.467 14.974-26.725 35.561-35.714 59.838-12.158-4.518-23.204-9.863-32.997-15.957a174.076 174.076 0 0 1 5.509-5.813c19.078-19.21 41.927-33.345 66.885-41.712zM60.061 301.089c9.787-6.09 20.834-11.435 32.999-15.957 8.993 24.281 21.252 44.868 35.717 59.84a115.612 115.612 0 0 0 3.705 3.653c-24.968-8.366-47.826-22.505-66.911-41.721a173.144 173.144 0 0 1-5.51-5.815zm181.596 47.545c8.782-8.291 16.784-18.52 23.908-30.553a89.851 89.851 0 0 0 16.581 10.6c-12.666 8.494-26.247 15.174-40.489 19.953zm80.651-25.531c-26.039-.002-51.388-13.562-65.22-37.736-20.537-35.893-8.045-81.802 27.848-102.339 11.719-6.705 24.497-9.888 37.119-9.888 26.039 0 51.388 13.562 65.22 37.736 9.949 17.387 12.531 37.607 7.271 56.937-5.26 19.329-17.732 35.453-35.119 45.402-11.719 6.704-24.497 9.889-37.119 9.888zM428.899 424.97a6.742 6.742 0 0 1-3.178 4.108 6.739 6.739 0 0 1-5.151.658 6.739 6.739 0 0 1-4.107-3.177l-55.606-97.182a90.804 90.804 0 0 0 6.02-3.142 91.036 91.036 0 0 0 5.751-3.611l55.613 97.195a6.744 6.744 0 0 1 .658 5.151z"/>
</svg>
